<svg xmlns="http://www.w3.org/2000/svg" viewBox="0 0 32 32" fill="none">
<rect width="32" height="32" rx="6" fill="#07070D"/>
<defs>
  <linearGradient id="fg" x1="0%" y1="0%" x2="100%" y2="100%">
    <stop offset="0%" style="stop-color:#3A4A5C"/>
    <stop offset="100%" style="stop-color:#1A2530"/>
  </linearGradient>
</defs>
<polygon points="1,1 7,1 16,15 13,15" fill="url(#fg)"/>
<polygon points="25,1 31,1 19,15 16,15" fill="url(#fg)"/>
<polygon points="1,31 7,31 16,17 13,17" fill="url(#fg)"/>
<polygon points="25,31 31,31 19,17 16,17" fill="url(#fg)"/>
<rect x="13.5" y="9" width="5" height="1.5" rx="0.7" fill="#00AAFF"/>
<rect x="12" y="11" width="8" height="3" rx="1.2" fill="#00AAFF"/>
<rect x="10" y="11.8" width="2" height="1.5" rx="0.5" fill="#00AAFF" opacity="0.6"/>
<rect x="20" y="11.8" width="2" height="1.5" rx="0.5" fill="#00AAFF" opacity="0.6"/>
<rect x="13" y="14" width="6" height="1.2" rx="0.6" fill="#00AAFF" opacity="0.4"/>
<rect x="11" y="15.5" width="10" height="4" rx="1.5" fill="#00AAFF"/>
<rect x="8.5" y="16.5" width="2.5" height="2" rx="0.5" fill="#00AAFF" opacity="0.65"/>
<rect x="21" y="16.5" width="2.5" height="2" rx="0.5" fill="#00AAFF" opacity="0.65"/>
<rect x="13" y="19.5" width="6" height="1.2" rx="0.6" fill="#00AAFF" opacity="0.4"/>
<rect x="12" y="21" width="8" height="3" rx="1.2" fill="#00AAFF"/>
<rect x="10" y="21.8" width="2" height="1.5" rx="0.5" fill="#00AAFF" opacity="0.6"/>
<rect x="20" y="21.8" width="2" height="1.5" rx="0.5" fill="#00AAFF" opacity="0.6"/>
<rect x="13.5" y="24" width="5" height="1.5" rx="0.7" fill="#00AAFF"/>
</svg>
