<svg xmlns="http://www.w3.org/2000/svg" viewBox="0 0 100 100" fill="none">
<defs>
  <linearGradient id="armGradI" x1="0%" y1="0%" x2="100%" y2="100%">
    <stop offset="0%" style="stop-color:#3A4A5C;stop-opacity:1"/>
    <stop offset="100%" style="stop-color:#1A2530;stop-opacity:1"/>
  </linearGradient>
</defs>

<!-- X arms — elegant thin trapezoids -->
<polygon points="4,4 22,4 48,48 40,48" fill="url(#armGradI)"/>
<polygon points="78,4 96,4 60,48 52,48" fill="url(#armGradI)"/>
<polygon points="4,96 22,96 48,52 40,52" fill="url(#armGradI)"/>
<polygon points="78,96 96,96 60,52 52,52" fill="url(#armGradI)"/>

<!-- Spine -->
<rect x="43" y="28" width="14" height="3.5" rx="1.7" fill="#00AAFF"/>
<rect x="39" y="32.5" width="22" height="7" rx="2.5" fill="#00AAFF"/>
<rect x="33" y="34.5" width="6" height="3.5" rx="1" fill="#00AAFF" opacity="0.6"/>
<rect x="61" y="34.5" width="6" height="3.5" rx="1" fill="#00AAFF" opacity="0.6"/>
<rect x="44" y="39.5" width="12" height="3" rx="1.2" fill="#00AAFF" opacity="0.45"/>
<rect x="36" y="43" width="28" height="11" rx="3.5" fill="#00AAFF"/>
<rect x="27" y="45.5" width="9" height="6" rx="1.5" fill="#00AAFF" opacity="0.65"/>
<rect x="64" y="45.5" width="9" height="6" rx="1.5" fill="#00AAFF" opacity="0.65"/>
<rect x="44" y="54" width="12" height="3" rx="1.2" fill="#00AAFF" opacity="0.45"/>
<rect x="39" y="57.5" width="22" height="7" rx="2.5" fill="#00AAFF"/>
<rect x="33" y="59.5" width="6" height="3.5" rx="1" fill="#00AAFF" opacity="0.6"/>
<rect x="61" y="59.5" width="6" height="3.5" rx="1" fill="#00AAFF" opacity="0.6"/>
<rect x="43" y="65.5" width="14" height="3.5" rx="1.7" fill="#00AAFF"/>

<!-- Corner dots -->
<circle cx="41" cy="25.5" r="2" fill="#00AAFF" opacity="0.35"/>
<circle cx="59" cy="25.5" r="2" fill="#00AAFF" opacity="0.35"/>
<circle cx="41" cy="72" r="2" fill="#00AAFF" opacity="0.35"/>
<circle cx="59" cy="72" r="2" fill="#00AAFF" opacity="0.35"/>
</svg>
